<?xml version="1.0"?>
<svg xmlns="http://www.w3.org/2000/svg" xmlns:xlink="http://www.w3.org/1999/xlink" xmlns:svgjs="http://svgjs.com/svgjs" version="1.1" width="512" height="512" x="0" y="0" viewBox="0 0 24 24" style="enable-background:new 0 0 512 512" xml:space="preserve" class=""><g><path xmlns="http://www.w3.org/2000/svg" d="m15.75 20h-10.5c-1.241 0-2.25-1.01-2.25-2.25v-6.25h-1.75c-.689 0-1.25-.561-1.25-1.25 0-.348.148-.682.406-.916l9.576-9.127c.29-.275.746-.275 1.035 0l2.483 2.363v-.82c0-.414.336-.75.75-.75h3c.414 0 .75.336.75.75v5.108l2.607 2.488c.245.222.393.556.393.904 0 .689-.561 1.25-1.25 1.25h-1.75v6.25c0 1.24-1.009 2.25-2.25 2.25z" fill="#901d28" data-original="#cfd8dc" style="" class=""/><path xmlns="http://www.w3.org/2000/svg" d="m10.5 0c-.186 0-.373.069-.518.207l-9.576 9.127c-.258.234-.406.568-.406.916 0 .689.561 1.25 1.25 1.25h1.75v6.25c0 1.24 1.009 2.25 2.25 2.25h5.25z" fill="#e7e7e7" data-original="#b4bcc0" style="" class=""/><path xmlns="http://www.w3.org/2000/svg" d="m23.707 22.293-2.54-2.54c.524-.791.833-1.735.833-2.753 0-2.757-2.243-5-5-5s-5 2.243-5 5 2.243 5 5 5c1.018 0 1.963-.309 2.753-.833l2.54 2.54c.391.391 1.023.391 1.414 0s.391-1.023 0-1.414zm-6.707-2.293c-1.654 0-3-1.346-3-3s1.346-3 3-3 3 1.346 3 3-1.346 3-3 3z" fill="#212246" data-original="#607d8b" style="" class=""/><path xmlns="http://www.w3.org/2000/svg" d="m20 17c0 1.657-1.343 3-3 3s-3-1.343-3-3 1.343-3 3-3 3 1.343 3 3z" fill="#ffffff" data-original="#ffffff" style="" class=""/><path xmlns="http://www.w3.org/2000/svg" d="m13.49 13.442c-.919.907-1.49 2.167-1.49 3.558 0 2.757 2.243 5 5 5 1.018 0 1.963-.309 2.753-.833l2.54 2.54c.195.195.451.293.707.293s.512-.098.707-.293c.008-.008.016-.016.023-.024l-4.585-4.586c-.545.557-1.304.903-2.145.903-1.657 0-3-1.343-3-3 0-.841.346-1.601.903-2.145z" fill="#212246" data-original="#546d79" style="" class=""/><path xmlns="http://www.w3.org/2000/svg" d="m14.903 14.855c-.557.545-.903 1.304-.903 2.145 0 1.657 1.343 3 3 3 .841 0 1.6-.346 2.145-.903z" fill="#901d28" data-original="#dedede" style="" class=""/></g></svg>
