<?xml version="1.0"?>
<svg xmlns="http://www.w3.org/2000/svg" xmlns:xlink="http://www.w3.org/1999/xlink" xmlns:svgjs="http://svgjs.com/svgjs" version="1.1" width="512" height="512" x="0" y="0" viewBox="0 0 64 64" style="enable-background:new 0 0 512 512" xml:space="preserve" class=""><g><path xmlns="http://www.w3.org/2000/svg" d="m50.5 10h-7.5v-7h-22v16h22v-7h7.5c5.23828 0 9.5 4.26172 9.5 9.5 0 2.53174-.99023 4.91602-2.78711 6.71289-1.79785 1.79736-4.18164 2.78711-6.71289 2.78711h-7.125l2.625-7h-22l-2.625 7h-7.875c-6.34082 0-11.5 5.15869-11.5 11.5 0 3.06641 1.19824 5.95264 3.37305 8.12695 2.17578 2.1753 5.06152 3.37305 8.12695 3.37305h7.5v7h22v-7h4.07953c.48639 3.39099 3.39496 6 6.92047 6 3.86597 0 7-3.13403 7-7 0-3.86603-3.13403-7-7-7-3.52551 0-6.43408 2.60895-6.92047 6h-4.07953v-7h-22v7h-7.5c-2.53125 0-4.91504-.98975-6.71289-2.78711-1.79688-1.79687-2.78711-4.18115-2.78711-6.71289 0-5.23828 4.26172-9.5 9.5-9.5h7.125l-2.625 7h22l2.625-7h7.875c3.06543 0 5.95117-1.19775 8.12695-3.37305 2.17481-2.17431 3.37305-5.06054 3.37305-8.12695 0-6.34131-5.15918-11.5-11.5-11.5zm-10.5 6h-16v-2h16zm0-4h-16v-2h16zm0-4h-16v-2h16zm11.70703 44.29297 1.29297 1.29297 3.29297-3.29297 1.41406 1.41406-4.70703 4.70703-2.70703-2.70703zm-27.70703-4.29297h16v2h-16zm0 4h16v2h-16zm0 4h16v2h-16zm13-19h-14v-2h14zm2-4h-14v-2h14zm2-4h-14v-2h14z" fill="#212246" data-original="#000000" style=""/></g></svg>
