<?xml version="1.0"?>
<svg xmlns="http://www.w3.org/2000/svg" xmlns:xlink="http://www.w3.org/1999/xlink" xmlns:svgjs="http://svgjs.com/svgjs" version="1.1" width="512" height="512" x="0" y="0" viewBox="0 0 512 512" style="enable-background:new 0 0 512 512" xml:space="preserve" class=""><g>
<g xmlns="http://www.w3.org/2000/svg">
	<g>
		<path d="M157.32,82.019L144,70.187V24.003c0-4.416-3.584-8-8-8h-32c-4.416,0-8,3.584-8,8v3.52l-10.68-9.504    c-3.032-2.696-7.6-2.696-10.632,0l-72,64C0.976,83.539,0,85.715,0,88.003v88c0,4.416,3.584,8,8,8h56h32h56c4.416,0,8-3.584,8-8    v-88C160,85.715,159.024,83.539,157.32,82.019z M88,168.003H72v-40h16V168.003z M144,168.003h-40v-48c0-4.416-3.584-8-8-8H64    c-4.416,0-8,3.584-8,8v48H16V91.595l64-56.888l18.68,16.608c2.36,2.096,5.72,2.608,8.6,1.32c2.872-1.296,4.72-4.152,4.72-7.296    V32.003h16v41.776c0,2.288,0.976,4.464,2.68,5.984L144,91.595V168.003z" fill="#212246" data-original="#000000" style="" class=""/>
	</g>
</g>
<g xmlns="http://www.w3.org/2000/svg">
	<g>
		<path d="M509.32,82.019L496,70.187V24.003c0-4.416-3.584-8-8-8h-32c-4.416,0-8,3.584-8,8v3.52l-10.68-9.504    c-3.032-2.696-7.6-2.696-10.632,0l-72,64c-1.712,1.52-2.688,3.696-2.688,5.984v88c0,4.416,3.584,8,8,8h56h32h56    c4.416,0,8-3.584,8-8v-88C512,85.715,511.024,83.539,509.32,82.019z M440,168.003h-16v-40h16V168.003z M496,168.003h-40v-48    c0-4.416-3.584-8-8-8h-32c-4.416,0-8,3.584-8,8v48h-40V91.595l64-56.888l18.68,16.608c2.36,2.096,5.72,2.608,8.6,1.32    c2.872-1.296,4.72-4.152,4.72-7.296V32.003h16v41.776c0,2.288,0.976,4.464,2.68,5.984L496,91.595V168.003z" fill="#212246" data-original="#000000" style="" class=""/>
	</g>
</g>
<g xmlns="http://www.w3.org/2000/svg">
	<g>
		<path d="M400,200.003c-9.6,0-18.128,4.336-24,11.056c-5.872-6.72-14.4-11.056-24-11.056c-9.6,0-18.128,4.336-24,11.056    c-5.872-6.72-14.4-11.056-24-11.056c-5.856,0-11.272,1.696-16,4.448v-20.448h40c4.416,0,8-3.584,8-8v-88    c0-2.288-0.976-4.464-2.68-5.984L320,70.187V24.003c0-4.416-3.584-8-8-8h-32c-4.416,0-8,3.584-8,8v3.52l-10.68-9.504    c-3.032-2.696-7.6-2.696-10.632,0l-72,64c-1.712,1.52-2.688,3.696-2.688,5.984v88c0,4.416,3.584,8,8,8h40v109.152l-30.248,37.848    c-1.136,1.424-1.752,3.184-1.752,5v88.152c0,2.128,0.848,4.168,2.352,5.672L224,459.331v28.672c0,4.416,3.584,8,8,8h184    c4.416,0,8-3.584,8-8v-46.112l7.16-14.312c0.552-1.104,0.84-2.336,0.84-3.576v-192C432,214.355,417.648,200.003,400,200.003z     M192,168.003V91.595l64-56.888l18.68,16.608c2.36,2.096,5.72,2.608,8.592,1.32c2.88-1.296,4.728-4.152,4.728-7.296V32.003h16    v41.776c0,2.288,0.976,4.464,2.68,5.984L320,91.595v76.408h-32v-56c0-17.648-14.352-32-32-32s-32,14.352-32,32v56H192z     M416,422.115l-7.16,14.312c-0.552,1.104-0.84,2.336-0.84,3.576v40H240v-24c0-2.128-0.848-4.168-2.352-5.672L208,420.827v-82.016    l16-20.016v33.208h16v-240c0-8.824,7.176-16,16-16c8.824,0,16,7.176,16,16v120v64h16v-64c0-8.824,7.176-16,16-16    c8.824,0,16,7.176,16,16v64h16v-64c0-8.824,7.176-16,16-16c8.824,0,16,7.176,16,16v64h16v-64c0-8.824,7.176-16,16-16    c8.824,0,16,7.176,16,16V422.115z" fill="#212246" data-original="#000000" style="" class=""/>
	</g>
</g>
<g xmlns="http://www.w3.org/2000/svg">
	<g>
		<rect x="16" y="272.003" width="16" height="16" fill="#212246" data-original="#000000" style="" class=""/>
	</g>
</g>
<g xmlns="http://www.w3.org/2000/svg">
	<g>
		<rect x="48" y="272.003" width="16" height="16" fill="#212246" data-original="#000000" style="" class=""/>
	</g>
</g>
<g xmlns="http://www.w3.org/2000/svg">
	<g>
		<rect x="80" y="272.003" width="16" height="16" fill="#212246" data-original="#000000" style="" class=""/>
	</g>
</g>
<g xmlns="http://www.w3.org/2000/svg">
	<g>
		<rect x="64" y="312.003" width="16" height="16" fill="#212246" data-original="#000000" style="" class=""/>
	</g>
</g>
<g xmlns="http://www.w3.org/2000/svg">
	<g>
		<rect x="96" y="312.003" width="16" height="16" fill="#212246" data-original="#000000" style="" class=""/>
	</g>
</g>
<g xmlns="http://www.w3.org/2000/svg">
	<g>
		<rect x="128" y="312.003" width="16" height="16" fill="#212246" data-original="#000000" style="" class=""/>
	</g>
</g>
<g xmlns="http://www.w3.org/2000/svg">
</g>
<g xmlns="http://www.w3.org/2000/svg">
</g>
<g xmlns="http://www.w3.org/2000/svg">
</g>
<g xmlns="http://www.w3.org/2000/svg">
</g>
<g xmlns="http://www.w3.org/2000/svg">
</g>
<g xmlns="http://www.w3.org/2000/svg">
</g>
<g xmlns="http://www.w3.org/2000/svg">
</g>
<g xmlns="http://www.w3.org/2000/svg">
</g>
<g xmlns="http://www.w3.org/2000/svg">
</g>
<g xmlns="http://www.w3.org/2000/svg">
</g>
<g xmlns="http://www.w3.org/2000/svg">
</g>
<g xmlns="http://www.w3.org/2000/svg">
</g>
<g xmlns="http://www.w3.org/2000/svg">
</g>
<g xmlns="http://www.w3.org/2000/svg">
</g>
<g xmlns="http://www.w3.org/2000/svg">
</g>
</g></svg>
