<?xml version="1.0" encoding="utf-8"?>
<!-- Generator: Adobe Illustrator 24.1.0, SVG Export Plug-In . SVG Version: 6.00 Build 0)  -->
<svg version="1.1" id="Layer_1" xmlns="http://www.w3.org/2000/svg" xmlns:xlink="http://www.w3.org/1999/xlink" x="0px" y="0px"
	 viewBox="0 0 841.89 595.28" style="enable-background:new 0 0 841.89 595.28;" xml:space="preserve">
<style type="text/css">
	.st0{fill:#212246;}
	.st1{fill:#901D28;}
</style>
<g>
	<g>
		<path class="st0" d="M126.47,409.82l55.46,0l0-88.74l55.46,55.46l0,33.28l55.46,0l0,55.46l-166.39,0
			c-30.64,0-55.46-24.84-55.46-55.46l0-199.67l55.46,55.46L126.47,409.82z"/>
		<path class="st1" d="M71.01,121.42l166.39,0c30.64,0,55.46,24.84,55.46,55.46l0,199.67l-55.46-55.46l0-144.2l-55.46,0l0,88.74
			l-55.46-55.46l0-33.28l-55.46,0L71.01,121.42z"/>
	</g>
	<g>
		<g>
			<path class="st0" d="M394.97,134.73l-32.01,0v17.18l27.75,0v12.3l-27.75,0V195h-14.63l0-66.67c0-1.76,0.61-3.18,1.83-4.27
				c1.22-1.08,2.68-1.63,4.37-1.63l40.45,0V134.73z"/>
			<path class="st0" d="M414.8,135.8c-1.49,1.52-3.49,2.29-6,2.29c-2.51,0-4.49-0.75-5.95-2.24c-1.46-1.49-2.19-3.52-2.19-6.1
				c0-2.57,0.73-4.61,2.19-6.1c1.46-1.49,3.44-2.24,5.95-2.24c2.51,0,4.5,0.76,6,2.29c1.49,1.52,2.24,3.54,2.24,6.05
				C417.04,132.26,416.29,134.27,414.8,135.8z M401.9,195l0-50.81l13.72,0l0,50.81L401.9,195z"/>
			<path class="st0" d="M454.76,142.86c3.05,0,5.62,0.61,7.72,1.83l-2.85,10.98c-2.37-0.74-4.44-1.12-6.2-1.12
				c-4.88,0-9.35,1.9-13.42,5.69l0,34.76L426,195l0-50.81h13.52v5.89C444.13,145.27,449.21,142.86,454.76,142.86z"/>
			<path class="st0" d="M483.73,196.11c-8.81,0-15.89-2.57-21.24-7.72l5.49-8.74c4.95,4,9.99,6,15.14,6c2.24,0,4.12-0.44,5.64-1.32
				c1.52-0.88,2.29-2.1,2.29-3.66c0-0.54-0.1-1.05-0.31-1.52c-0.2-0.47-0.53-0.91-0.97-1.32c-0.44-0.41-0.86-0.75-1.27-1.02
				c-0.41-0.27-1.02-0.57-1.83-0.91c-0.81-0.34-1.47-0.59-1.98-0.76c-0.51-0.17-1.29-0.42-2.34-0.76c-1.05-0.34-1.81-0.57-2.29-0.71
				c-4.74-1.63-8.38-3.52-10.93-5.69c-2.54-2.17-3.81-5.22-3.81-9.15c0-5.01,1.91-8.92,5.74-11.74c3.83-2.81,8.76-4.22,14.79-4.22
				c7.32,0,13.68,1.97,19.11,5.89l-5.28,8.64c-4.67-2.85-9.08-4.27-13.21-4.27c-2.24,0-4.03,0.42-5.39,1.27
				c-1.36,0.85-2.03,1.95-2.03,3.3c0,1.09,0.51,2.05,1.52,2.9c1.02,0.85,1.95,1.42,2.8,1.73c0.85,0.3,2.39,0.83,4.62,1.57
				c2.3,0.75,4.01,1.32,5.13,1.73c1.12,0.41,2.62,1.1,4.52,2.08c1.9,0.98,3.3,1.97,4.22,2.95c0.91,0.98,1.74,2.27,2.49,3.86
				c0.74,1.59,1.12,3.37,1.12,5.34c0,5.08-2.1,9.06-6.3,11.94C494.97,194.68,489.83,196.11,483.73,196.11z"/>
			<path class="st0" d="M546.12,181.07l4.37,9.86c-4.54,3.46-9.86,5.18-15.96,5.18c-5.49,0-9.76-1.63-12.81-4.88
				c-3.05-3.25-4.57-7.83-4.57-13.72v-23.78h-7.62v-9.55l7.62,0l0-15.75l13.82,0l0,15.75l16.46,0l0,9.55l-16.46,0v22.56
				c0,2.71,0.69,4.64,2.08,5.79c1.39,1.15,3.03,1.73,4.93,1.73C540.63,183.82,543.34,182.9,546.12,181.07z"/>
			<path class="st0" d="M394.97,223.66l-32.01,0v17.18l27.75,0v12.3l-27.75,0v30.79h-14.63l0-66.67c0-1.76,0.61-3.18,1.83-4.27
				c1.22-1.08,2.68-1.63,4.37-1.63l40.45,0V223.66z"/>
			<path class="st0" d="M423.15,285.24c-7.86,0-14.09-2.44-18.7-7.32c-4.61-4.88-6.88-11.35-6.81-19.41
				c0.07-8.13,2.39-14.62,6.96-19.46c4.57-4.84,10.75-7.27,18.55-7.27c7.99,0,14.26,2.39,18.8,7.16c4.54,4.78,6.81,11.3,6.81,19.56
				c0,8.13-2.29,14.62-6.86,19.46C437.33,282.82,431.08,285.24,423.15,285.24z M423.15,273.86c8.06,0,12.09-5.11,12.09-15.35
				c0-10.23-4.03-15.35-12.09-15.35c-3.86,0-6.83,1.29-8.89,3.86c-2.07,2.58-3.1,6.4-3.1,11.48
				C411.16,268.75,415.15,273.86,423.15,273.86z"/>
			<path class="st0" d="M490.17,233.11h13.62l0,50.81h-13.11v-5.59c-5.76,4.54-11.79,6.81-18.09,6.81c-5.01,0-8.99-1.42-11.94-4.27
				c-2.95-2.84-4.42-6.98-4.42-12.4l0-35.37l13.82,0l0,32.22c0,5.56,2.3,8.33,6.91,8.33c4.13,0,8.54-1.96,13.21-5.89L490.17,233.11z
				"/>
			<path class="st0" d="M545.48,231.79c5.22,0,9.3,1.44,12.25,4.32c2.95,2.88,4.42,7,4.42,12.35l0,35.47h-14.02v-32.22
				c0-2.91-0.54-5.05-1.63-6.4c-1.08-1.35-2.81-2.03-5.18-2.03c-4.07,0-8.4,1.76-13.01,5.28v35.37l-14.23,0l0-50.81h13.11v5.39
				C533.15,234.02,539.24,231.79,545.48,231.79z"/>
			<path class="st0" d="M603.93,270l4.37,9.86c-4.54,3.46-9.86,5.18-15.96,5.18c-5.49,0-9.76-1.63-12.81-4.88
				c-3.05-3.25-4.57-7.83-4.57-13.72v-23.78h-7.62v-9.55l7.62,0v-15.75l13.82,0v15.75l16.46,0v9.55l-16.46,0l0,22.56
				c0,2.71,0.69,4.64,2.08,5.79c1.39,1.15,3.03,1.73,4.93,1.73C598.45,272.74,601.16,271.83,603.93,270z"/>
			<path class="st0" d="M634.42,231.79c6.84,0,12.3,1.85,16.36,5.54c4.07,3.69,6.1,8.89,6.1,15.6v31h-12.2v-6.61
				c-3.86,5.22-9.35,7.83-16.46,7.83c-5.22,0-9.44-1.44-12.65-4.32c-3.22-2.88-4.83-6.69-4.83-11.43c0-5.83,2.34-10.08,7.01-12.75
				c4.68-2.67,10.6-4.01,17.79-4.01c3.05,0,5.93,0.2,8.64,0.61v-0.71c0-3.18-0.98-5.61-2.95-7.27c-1.97-1.66-4.57-2.49-7.83-2.49
				c-5.28,0-10.43,1.93-15.45,5.79l-5.89-8.64C617.82,234.5,625.28,231.79,634.42,231.79z M631.58,274.88
				c3.66,0,6.61-1.25,8.84-3.76c2.24-2.51,3.49-5.76,3.76-9.76c-2.64-0.2-5.18-0.31-7.62-0.31c-8.06,0-12.09,2.47-12.09,7.42
				c0,1.9,0.64,3.44,1.93,4.62C627.68,274.29,629.41,274.88,631.58,274.88z"/>
			<path class="st0" d="M679.52,224.72c-1.49,1.52-3.49,2.29-6,2.29c-2.51,0-4.49-0.75-5.95-2.24c-1.46-1.49-2.19-3.52-2.19-6.1
				c0-2.57,0.73-4.61,2.19-6.1c1.46-1.49,3.44-2.24,5.95-2.24c2.51,0,4.5,0.76,6,2.29c1.49,1.52,2.24,3.54,2.24,6.05
				C681.75,221.18,681,223.2,679.52,224.72z M666.61,283.92l0-50.81h13.72l0,50.81H666.61z"/>
			<path class="st0" d="M722.12,231.79c5.22,0,9.3,1.44,12.25,4.32c2.95,2.88,4.42,7,4.42,12.35v35.47h-14.02l0-32.22
				c0-2.91-0.54-5.05-1.63-6.4c-1.08-1.35-2.81-2.03-5.18-2.03c-4.07,0-8.4,1.76-13.01,5.28l0,35.37l-14.23,0v-50.81h13.11v5.39
				C709.79,234.02,715.88,231.79,722.12,231.79z"/>
			<path class="st0" d="M348.42,372.85l0-72.56h14.63l0,29.88l30.49,0v-29.88l14.63,0l0,72.56h-14.63l0-29.78l-30.49,0l0,29.78
				H348.42z"/>
			<path class="st0" d="M443.2,374.17c-7.86,0-14.09-2.44-18.7-7.32c-4.61-4.88-6.88-11.35-6.81-19.41
				c0.07-8.13,2.39-14.62,6.96-19.46c4.57-4.84,10.75-7.27,18.55-7.27c7.99,0,14.26,2.39,18.8,7.16c4.54,4.78,6.81,11.3,6.81,19.56
				c0,8.13-2.29,14.62-6.86,19.46C457.38,371.75,451.13,374.17,443.2,374.17z M443.2,362.79c8.06,0,12.09-5.11,12.09-15.35
				c0-10.23-4.03-15.35-12.09-15.35c-3.86,0-6.83,1.29-8.89,3.86c-2.07,2.58-3.1,6.4-3.1,11.48
				C431.21,357.67,435.2,362.79,443.2,362.79z"/>
			<path class="st0" d="M541.53,320.71c5.08,0,9.11,1.44,12.09,4.32c2.98,2.88,4.47,7,4.47,12.35l0,35.47h-14.13l0-32.42
				c0-2.78-0.49-4.84-1.47-6.2c-0.98-1.35-2.69-2.03-5.13-2.03c-4.47,0-8.78,1.83-12.91,5.49l0,35.16l-14.13,0v-32.42
				c0-2.78-0.51-4.84-1.52-6.2c-1.02-1.35-2.74-2.03-5.18-2.03c-4.13,0-8.44,1.93-12.91,5.79l0,34.86h-14.13l0-50.81h13.11l0,6.4
				c6.16-5.15,12.4-7.72,18.7-7.72c6.84,0,11.55,2.47,14.13,7.42C528.55,323.19,534.89,320.71,541.53,320.71z"/>
			<path class="st0" d="M591.81,362.99c5.35,0,10.47-1.8,15.35-5.39l5.59,8.94c-6.37,5.01-13.65,7.52-21.85,7.52
				c-7.79,0-13.99-2.42-18.6-7.27c-4.61-4.84-6.91-11.06-6.91-18.65c0-7.65,2.37-14.14,7.11-19.46c4.74-5.32,11.21-7.98,19.41-7.98
				c5.96,0,11.01,1.58,15.14,4.73c4.13,3.15,6.2,7.47,6.2,12.96c0,4.2-1.31,7.67-3.91,10.42c-2.61,2.74-6.62,4.12-12.04,4.12h-18.9
				C579.82,359.64,584.29,362.99,591.81,362.99z M591.81,331.18c-3.32,0-6.27,1.08-8.84,3.25c-2.58,2.17-4.2,5.22-4.88,9.15h16.26
				c2.03,0,3.61-0.51,4.73-1.52c1.12-1.02,1.68-2.37,1.68-4.07c0-1.9-0.83-3.51-2.49-4.83C596.6,331.84,594.45,331.18,591.81,331.18
				z"/>
			<path class="st0" d="M638.72,373.97c-8.81,0-15.89-2.57-21.24-7.72l5.49-8.74c4.95,4,9.99,6,15.14,6c2.24,0,4.12-0.44,5.64-1.32
				c1.52-0.88,2.29-2.1,2.29-3.66c0-0.54-0.1-1.05-0.31-1.52c-0.2-0.47-0.53-0.91-0.97-1.32c-0.44-0.41-0.86-0.75-1.27-1.02
				c-0.41-0.27-1.02-0.57-1.83-0.91c-0.81-0.34-1.47-0.59-1.98-0.76c-0.51-0.17-1.29-0.42-2.34-0.76c-1.05-0.34-1.81-0.57-2.29-0.71
				c-4.74-1.63-8.38-3.52-10.93-5.69c-2.54-2.17-3.81-5.22-3.81-9.15c0-5.01,1.91-8.92,5.74-11.74c3.83-2.81,8.76-4.22,14.79-4.22
				c7.32,0,13.68,1.97,19.11,5.89l-5.28,8.64c-4.67-2.85-9.08-4.27-13.21-4.27c-2.24,0-4.03,0.42-5.39,1.27
				c-1.36,0.85-2.03,1.95-2.03,3.3c0,1.09,0.51,2.05,1.52,2.9c1.02,0.85,1.95,1.42,2.8,1.73c0.85,0.3,2.39,0.83,4.62,1.57
				c2.3,0.75,4.01,1.32,5.13,1.73c1.12,0.41,2.62,1.1,4.52,2.08c1.9,0.98,3.3,1.97,4.22,2.95c0.91,0.98,1.74,2.27,2.49,3.86
				c0.74,1.59,1.12,3.37,1.12,5.34c0,5.08-2.1,9.06-6.3,11.94C649.97,372.53,644.82,373.97,638.72,373.97z"/>
		</g>
		<g>
			<path d="M351.52,446.93c0,0.73,0.15,1.34,0.44,1.81c0.3,0.48,0.69,0.87,1.2,1.18c0.5,0.31,1.08,0.56,1.74,0.76
				c0.66,0.2,1.35,0.38,2.07,0.56c0.96,0.24,1.91,0.5,2.84,0.78c0.93,0.29,1.76,0.68,2.49,1.18c0.73,0.5,1.32,1.16,1.77,1.96
				c0.45,0.81,0.68,1.84,0.68,3.1c0,1.29-0.24,2.4-0.73,3.34c-0.49,0.94-1.16,1.7-2.03,2.3c-0.86,0.6-1.88,1.05-3.06,1.34
				c-1.18,0.29-2.47,0.44-3.86,0.44c-0.64,0-1.3-0.04-1.98-0.12c-0.68-0.08-1.32-0.19-1.93-0.33c-0.61-0.14-1.17-0.29-1.66-0.46
				c-0.5-0.17-0.89-0.35-1.17-0.52v-2.77c0.45,0.22,0.95,0.43,1.51,0.61c0.56,0.19,1.13,0.34,1.73,0.47s1.2,0.23,1.8,0.31
				c0.61,0.07,1.18,0.11,1.71,0.11c0.87,0,1.69-0.07,2.48-0.22c0.79-0.15,1.48-0.4,2.07-0.74c0.59-0.35,1.06-0.82,1.41-1.42
				c0.35-0.6,0.52-1.35,0.52-2.26c0-0.74-0.15-1.36-0.46-1.84c-0.3-0.48-0.71-0.88-1.22-1.2c-0.51-0.32-1.09-0.57-1.76-0.77
				c-0.66-0.2-1.36-0.38-2.09-0.56c-0.97-0.22-1.91-0.47-2.83-0.75c-0.92-0.28-1.75-0.67-2.47-1.16c-0.72-0.49-1.31-1.13-1.75-1.91
				c-0.44-0.78-0.66-1.78-0.66-2.99c0-1.26,0.23-2.35,0.69-3.26c0.46-0.91,1.09-1.66,1.88-2.26c0.79-0.59,1.7-1.03,2.73-1.32
				c1.03-0.28,2.12-0.43,3.29-0.43c1.33,0,2.56,0.13,3.71,0.38c1.15,0.25,2.2,0.59,3.15,0.99v2.81c-1.03-0.43-2.09-0.79-3.19-1.06
				c-1.1-0.27-2.27-0.41-3.52-0.43c-0.94,0-1.76,0.1-2.45,0.31c-0.69,0.2-1.27,0.5-1.73,0.87c-0.46,0.38-0.8,0.84-1.02,1.38
				C351.63,445.68,351.52,446.28,351.52,446.93z"/>
			<path d="M383.74,465.22h-2.88l0-11.35c0-0.77-0.08-1.42-0.25-1.96s-0.41-0.98-0.72-1.33c-0.32-0.35-0.69-0.6-1.13-0.76
				c-0.44-0.16-0.93-0.24-1.48-0.24c-1.03,0-1.96,0.28-2.81,0.83c-0.84,0.55-1.6,1.31-2.27,2.28l0,12.54h-2.88v-17.65h2.23
				l0.56,2.45h0.06c0.32-0.41,0.67-0.79,1.05-1.14c0.38-0.35,0.8-0.66,1.26-0.93c0.46-0.27,0.98-0.47,1.53-0.62s1.16-0.22,1.82-0.22
				c1.31,0,2.4,0.32,3.27,0.95c0.87,0.63,1.54,1.49,2.01,2.58h0.07c0.78-1.1,1.67-1.97,2.68-2.59c1.01-0.62,2.18-0.94,3.52-0.94
				c0.62,0,1.28,0.09,1.97,0.26c0.69,0.17,1.33,0.49,1.92,0.96c0.58,0.46,1.07,1.11,1.45,1.92c0.38,0.82,0.58,1.87,0.58,3.16v11.82
				h-2.88v-11.35c0-0.77-0.08-1.42-0.25-1.96c-0.17-0.54-0.41-0.98-0.72-1.33c-0.32-0.35-0.69-0.6-1.13-0.76
				c-0.44-0.16-0.93-0.24-1.48-0.24c-1.03,0-1.97,0.28-2.82,0.83c-0.85,0.55-1.61,1.31-2.28,2.28V465.22z"/>
			<path d="M410.57,463.27h-0.07c-0.24,0.3-0.53,0.59-0.89,0.88c-0.36,0.29-0.77,0.55-1.24,0.78c-0.47,0.23-0.98,0.41-1.54,0.55
				c-0.56,0.14-1.15,0.2-1.78,0.2c-0.85,0-1.64-0.13-2.35-0.38c-0.71-0.25-1.33-0.62-1.84-1.11c-0.51-0.49-0.91-1.09-1.2-1.79
				c-0.29-0.71-0.43-1.51-0.43-2.4c0-0.88,0.16-1.67,0.47-2.36c0.32-0.69,0.76-1.28,1.33-1.77c0.57-0.48,1.25-0.85,2.05-1.11
				c0.8-0.26,1.68-0.39,2.65-0.39c0.92,0.01,1.77,0.09,2.55,0.24c0.78,0.15,1.47,0.33,2.08,0.56h0.07v-1.23
				c0-0.48-0.03-0.91-0.09-1.28c-0.06-0.37-0.17-0.7-0.32-0.98c-0.32-0.59-0.84-1.09-1.54-1.48c-0.71-0.39-1.66-0.59-2.86-0.59
				c-0.89,0-1.73,0.08-2.52,0.25c-0.79,0.17-1.57,0.4-2.35,0.7v-2.42c0.3-0.15,0.65-0.29,1.05-0.42c0.4-0.13,0.83-0.24,1.27-0.33
				c0.45-0.09,0.92-0.16,1.41-0.21c0.5-0.05,0.99-0.07,1.49-0.07c1.78,0,3.24,0.32,4.38,0.95c1.13,0.63,1.95,1.47,2.44,2.51
				c0.19,0.4,0.32,0.83,0.4,1.31c0.08,0.48,0.12,1,0.12,1.57l0,11.78h-2.42L410.57,463.27z M410.42,457.47
				c-0.53-0.15-1.16-0.29-1.89-0.43c-0.73-0.14-1.53-0.21-2.4-0.22c-1.22,0-2.18,0.26-2.87,0.78c-0.69,0.52-1.04,1.32-1.04,2.4
				c0,0.55,0.09,1.02,0.26,1.43c0.17,0.41,0.41,0.75,0.71,1.01c0.3,0.27,0.66,0.46,1.07,0.59c0.41,0.13,0.85,0.2,1.32,0.2
				c0.62,0,1.19-0.09,1.72-0.27c0.53-0.18,1-0.39,1.42-0.64c0.41-0.25,0.76-0.49,1.05-0.74c0.29-0.25,0.5-0.44,0.64-0.58V457.47z"/>
			<path d="M428.09,449.91h-0.22c-0.68,0-1.35,0.06-2.01,0.19c-0.66,0.12-1.27,0.31-1.85,0.57c-0.58,0.25-1.1,0.57-1.56,0.94
				c-0.46,0.37-0.85,0.81-1.16,1.32l0,12.3h-2.88v-17.65h2.23l0.56,2.81h0.06c0.28-0.46,0.63-0.88,1.05-1.28
				c0.41-0.4,0.88-0.74,1.4-1.04c0.52-0.3,1.09-0.53,1.71-0.7c0.62-0.17,1.27-0.25,1.95-0.25c0.12,0,0.25,0,0.38,0.01
				c0.13,0.01,0.24,0.02,0.34,0.03V449.91z"/>
			<path d="M441.76,465.26c-0.25,0.1-0.63,0.19-1.13,0.28c-0.51,0.09-1.11,0.14-1.82,0.15c-0.93,0-1.73-0.11-2.42-0.34
				c-0.68-0.23-1.25-0.56-1.7-0.98c-0.45-0.43-0.79-0.94-1.01-1.55c-0.22-0.61-0.33-1.28-0.33-2.03v-10.74h-3.4v-2.47h3.4v-4.83
				h2.88v4.83h5.28l0,2.47h-5.28v10.29c0,0.41,0.06,0.79,0.18,1.13c0.12,0.35,0.3,0.65,0.56,0.9c0.25,0.25,0.58,0.45,0.98,0.59
				c0.4,0.14,0.87,0.21,1.43,0.21c0.38,0,0.79-0.03,1.22-0.09c0.43-0.06,0.82-0.14,1.18-0.24V465.26z"/>
			<path d="M456.35,449.98h0.06c0.32-0.41,0.68-0.79,1.08-1.14c0.4-0.35,0.84-0.66,1.32-0.91c0.48-0.25,1-0.46,1.56-0.6
				s1.16-0.22,1.8-0.22c0.67,0,1.34,0.09,2.01,0.27c0.67,0.18,1.29,0.5,1.86,0.96c0.57,0.46,1.03,1.1,1.39,1.91
				c0.36,0.82,0.54,1.87,0.54,3.16v11.82h-2.88l0-11.35c0-1.42-0.27-2.5-0.81-3.21c-0.54-0.72-1.42-1.08-2.65-1.08
				c-1.02,0-1.98,0.28-2.9,0.83c-0.92,0.55-1.71,1.31-2.38,2.28v12.54h-2.88v-26.91h2.88L456.35,449.98z"/>
			<path d="M488.86,456.41c0,1.39-0.2,2.65-0.59,3.79c-0.4,1.14-0.96,2.12-1.68,2.93c-0.72,0.81-1.6,1.44-2.63,1.89
				c-1.03,0.45-2.18,0.67-3.46,0.67c-1.31,0-2.49-0.22-3.52-0.67c-1.03-0.45-1.91-1.07-2.64-1.89c-0.72-0.81-1.28-1.79-1.66-2.93
				c-0.38-1.14-0.58-2.4-0.58-3.79c0-1.4,0.2-2.67,0.59-3.81c0.4-1.14,0.96-2.12,1.68-2.94c0.72-0.82,1.6-1.45,2.64-1.9
				c1.03-0.45,2.19-0.67,3.47-0.67c1.3,0,2.47,0.22,3.51,0.67c1.04,0.45,1.92,1.08,2.64,1.9c0.72,0.82,1.27,1.8,1.65,2.94
				C488.66,453.74,488.86,455.01,488.86,456.41z M485.85,456.41c0-1.09-0.13-2.06-0.4-2.91c-0.27-0.85-0.64-1.57-1.11-2.16
				c-0.48-0.59-1.04-1.03-1.7-1.34c-0.66-0.3-1.38-0.46-2.16-0.46c-0.78,0-1.5,0.15-2.16,0.46c-0.66,0.3-1.22,0.75-1.7,1.34
				c-0.48,0.59-0.85,1.31-1.11,2.16c-0.27,0.85-0.4,1.82-0.4,2.91c0,1.08,0.13,2.04,0.4,2.89c0.27,0.85,0.64,1.56,1.12,2.15
				c0.48,0.58,1.05,1.03,1.71,1.33c0.66,0.3,1.38,0.46,2.16,0.46c0.78,0,1.5-0.15,2.15-0.46c0.65-0.3,1.21-0.75,1.69-1.33
				c0.48-0.58,0.85-1.3,1.11-2.15C485.71,458.45,485.85,457.49,485.85,456.41z"/>
			<path d="M507.47,465.22h-2.88l0-11.35c0-0.77-0.08-1.42-0.25-1.96c-0.17-0.54-0.41-0.98-0.72-1.33c-0.32-0.35-0.69-0.6-1.13-0.76
				c-0.44-0.16-0.93-0.24-1.48-0.24c-1.03,0-1.96,0.28-2.81,0.83c-0.84,0.55-1.6,1.31-2.27,2.28l0,12.54h-2.88v-17.65h2.23
				l0.56,2.45h0.06c0.32-0.41,0.67-0.79,1.05-1.14c0.38-0.35,0.8-0.66,1.26-0.93c0.46-0.27,0.98-0.47,1.53-0.62
				c0.56-0.15,1.16-0.22,1.82-0.22c1.31,0,2.4,0.32,3.27,0.95c0.87,0.63,1.54,1.49,2.01,2.58h0.07c0.78-1.1,1.67-1.97,2.68-2.59
				c1.01-0.62,2.18-0.94,3.52-0.94c0.62,0,1.28,0.09,1.97,0.26c0.69,0.17,1.33,0.49,1.92,0.96c0.58,0.46,1.07,1.11,1.45,1.92
				c0.38,0.82,0.58,1.87,0.58,3.16v11.82h-2.88v-11.35c0-0.77-0.08-1.42-0.25-1.96s-0.41-0.98-0.72-1.33
				c-0.32-0.35-0.69-0.6-1.13-0.76c-0.44-0.16-0.93-0.24-1.48-0.24c-1.03,0-1.97,0.28-2.82,0.83c-0.85,0.55-1.61,1.31-2.28,2.28
				V465.22z"/>
			<path d="M532.63,463.17c0.95,0,1.82-0.08,2.61-0.23c0.79-0.15,1.57-0.37,2.35-0.66v2.4c-0.63,0.31-1.41,0.55-2.34,0.73
				c-0.93,0.18-1.93,0.27-2.99,0.27c-1.26,0-2.45-0.16-3.56-0.48c-1.11-0.32-2.07-0.84-2.88-1.56c-0.81-0.72-1.45-1.66-1.9-2.82
				c-0.46-1.16-0.69-2.55-0.69-4.19c0-1.61,0.22-3.01,0.67-4.19c0.44-1.18,1.04-2.17,1.78-2.96c0.74-0.79,1.59-1.39,2.56-1.78
				c0.96-0.4,1.97-0.59,3.02-0.59c0.99,0,1.91,0.16,2.77,0.49c0.86,0.33,1.6,0.85,2.23,1.55c0.63,0.71,1.13,1.62,1.49,2.73
				c0.36,1.11,0.55,2.45,0.55,4.01c0,0.15,0,0.28,0,0.38c0,0.11-0.01,0.34-0.02,0.72l-12.19,0c0,1.13,0.17,2.08,0.51,2.87
				c0.34,0.79,0.8,1.42,1.39,1.91c0.59,0.49,1.28,0.85,2.07,1.07C530.85,463.06,531.71,463.17,532.63,463.17z M531.11,449.57
				c-0.67,0-1.28,0.13-1.85,0.39c-0.57,0.26-1.07,0.61-1.5,1.06s-0.77,0.97-1.03,1.57c-0.26,0.6-0.43,1.24-0.49,1.92h9.03
				c0-0.69-0.09-1.34-0.27-1.94c-0.18-0.6-0.45-1.12-0.8-1.57c-0.35-0.45-0.78-0.8-1.3-1.05
				C532.38,449.7,531.78,449.57,531.11,449.57z"/>
			<path d="M544.73,452.27c0,0.48,0.1,0.88,0.31,1.19c0.21,0.31,0.48,0.56,0.83,0.75c0.35,0.19,0.74,0.35,1.2,0.47
				c0.45,0.12,0.92,0.24,1.41,0.33c0.67,0.15,1.3,0.31,1.89,0.49c0.59,0.18,1.14,0.45,1.64,0.81c0.5,0.36,0.91,0.85,1.22,1.46
				c0.31,0.61,0.46,1.41,0.46,2.39c0,0.89-0.17,1.68-0.52,2.37c-0.35,0.69-0.84,1.26-1.47,1.73c-0.63,0.46-1.39,0.82-2.27,1.06
				c-0.88,0.24-1.85,0.36-2.9,0.36c-0.64,0-1.23-0.03-1.76-0.1c-0.53-0.07-0.99-0.16-1.39-0.26c-0.4-0.1-0.75-0.21-1.03-0.33
				c-0.29-0.11-0.52-0.22-0.71-0.32v-2.42c0.73,0.3,1.45,0.53,2.17,0.71c0.72,0.17,1.51,0.26,2.37,0.26c0.68,0,1.3-0.06,1.84-0.19
				c0.55-0.12,1.02-0.31,1.41-0.55c0.4-0.24,0.7-0.54,0.91-0.91c0.21-0.36,0.32-0.79,0.32-1.27c0-0.49-0.1-0.9-0.29-1.23
				c-0.2-0.32-0.46-0.59-0.79-0.8c-0.33-0.21-0.71-0.38-1.14-0.52c-0.43-0.14-0.88-0.26-1.36-0.37c-0.62-0.14-1.25-0.3-1.89-0.48
				c-0.64-0.19-1.22-0.45-1.74-0.78c-0.52-0.33-0.95-0.79-1.27-1.37c-0.32-0.58-0.48-1.32-0.48-2.22c0-0.93,0.17-1.73,0.5-2.42
				c0.33-0.68,0.79-1.24,1.36-1.69c0.57-0.45,1.23-0.78,1.99-1c0.76-0.22,1.55-0.33,2.4-0.33c0.98,0,1.89,0.09,2.72,0.28
				c0.84,0.19,1.59,0.42,2.28,0.71v2.45c-0.73-0.28-1.46-0.52-2.2-0.7c-0.74-0.18-1.51-0.28-2.29-0.29c-0.66,0-1.23,0.07-1.7,0.2
				c-0.47,0.14-0.86,0.33-1.16,0.57c-0.3,0.24-0.52,0.53-0.66,0.85C544.8,451.51,544.73,451.87,544.73,452.27z"/>
			<path d="M558.39,465.22v-3.62h3.53v3.62H558.39z"/>
			<path d="M578.38,446.93c0,0.73,0.15,1.34,0.44,1.81c0.3,0.48,0.69,0.87,1.2,1.18c0.5,0.31,1.08,0.56,1.74,0.76
				c0.66,0.2,1.35,0.38,2.07,0.56c0.96,0.24,1.91,0.5,2.84,0.78c0.93,0.29,1.76,0.68,2.49,1.18c0.73,0.5,1.32,1.16,1.77,1.96
				c0.45,0.81,0.68,1.84,0.68,3.1c0,1.29-0.24,2.4-0.73,3.34c-0.49,0.94-1.16,1.7-2.03,2.3c-0.86,0.6-1.88,1.05-3.06,1.34
				c-1.18,0.29-2.47,0.44-3.86,0.44c-0.64,0-1.3-0.04-1.98-0.12c-0.68-0.08-1.32-0.19-1.93-0.33c-0.61-0.14-1.17-0.29-1.66-0.46
				c-0.5-0.17-0.89-0.35-1.17-0.52v-2.77c0.45,0.22,0.95,0.43,1.51,0.61s1.13,0.34,1.73,0.47s1.2,0.23,1.8,0.31
				c0.61,0.07,1.18,0.11,1.71,0.11c0.87,0,1.69-0.07,2.48-0.22c0.79-0.15,1.48-0.4,2.07-0.74c0.59-0.35,1.06-0.82,1.41-1.42
				c0.35-0.6,0.52-1.35,0.52-2.26c0-0.74-0.15-1.36-0.46-1.84c-0.3-0.48-0.71-0.88-1.22-1.2c-0.51-0.32-1.09-0.57-1.76-0.77
				c-0.66-0.2-1.36-0.38-2.09-0.56c-0.97-0.22-1.91-0.47-2.83-0.75c-0.92-0.28-1.75-0.67-2.47-1.16c-0.72-0.49-1.31-1.13-1.75-1.91
				c-0.44-0.78-0.66-1.78-0.66-2.99c0-1.26,0.23-2.35,0.69-3.26c0.46-0.91,1.09-1.66,1.88-2.26c0.79-0.59,1.7-1.03,2.73-1.32
				c1.03-0.28,2.12-0.43,3.29-0.43c1.33,0,2.56,0.13,3.71,0.38c1.15,0.25,2.2,0.59,3.15,0.99v2.81c-1.03-0.43-2.09-0.79-3.19-1.06
				c-1.1-0.27-2.27-0.41-3.52-0.43c-0.94,0-1.76,0.1-2.45,0.31c-0.69,0.2-1.27,0.5-1.73,0.87c-0.46,0.38-0.8,0.84-1.02,1.38
				C578.49,445.68,578.38,446.28,578.38,446.93z"/>
			<path d="M610.61,465.22h-2.88v-11.35c0-0.77-0.08-1.42-0.25-1.96s-0.41-0.98-0.72-1.33c-0.32-0.35-0.69-0.6-1.13-0.76
				c-0.44-0.16-0.93-0.24-1.48-0.24c-1.03,0-1.96,0.28-2.81,0.83c-0.84,0.55-1.6,1.31-2.27,2.28v12.54h-2.88l0-17.65h2.23l0.56,2.45
				h0.06c0.32-0.41,0.67-0.79,1.05-1.14c0.38-0.35,0.8-0.66,1.26-0.93c0.46-0.27,0.98-0.47,1.53-0.62s1.16-0.22,1.82-0.22
				c1.31,0,2.4,0.32,3.27,0.95c0.87,0.63,1.54,1.49,2.01,2.58h0.07c0.78-1.1,1.67-1.97,2.68-2.59c1.01-0.62,2.18-0.94,3.52-0.94
				c0.62,0,1.28,0.09,1.97,0.26c0.69,0.17,1.33,0.49,1.92,0.96c0.58,0.46,1.07,1.11,1.45,1.92s0.58,1.87,0.58,3.16l0,11.82l-2.88,0
				v-11.35c0-0.77-0.08-1.42-0.25-1.96c-0.17-0.54-0.41-0.98-0.72-1.33c-0.32-0.35-0.69-0.6-1.13-0.76
				c-0.44-0.16-0.93-0.24-1.48-0.24c-1.03,0-1.97,0.28-2.82,0.83c-0.85,0.55-1.61,1.31-2.28,2.28V465.22z"/>
			<path d="M637.44,463.27h-0.07c-0.24,0.3-0.53,0.59-0.89,0.88c-0.36,0.29-0.77,0.55-1.24,0.78c-0.47,0.23-0.98,0.41-1.54,0.55
				c-0.56,0.14-1.15,0.2-1.78,0.2c-0.85,0-1.64-0.13-2.35-0.38c-0.71-0.25-1.33-0.62-1.84-1.11c-0.51-0.49-0.91-1.09-1.2-1.79
				c-0.29-0.71-0.43-1.51-0.43-2.4c0-0.88,0.16-1.67,0.47-2.36c0.32-0.69,0.76-1.28,1.33-1.77c0.57-0.48,1.25-0.85,2.05-1.11
				c0.8-0.26,1.68-0.39,2.65-0.39c0.92,0.01,1.77,0.09,2.55,0.24c0.78,0.15,1.47,0.33,2.08,0.56h0.07v-1.23
				c0-0.48-0.03-0.91-0.09-1.28c-0.06-0.37-0.17-0.7-0.32-0.98c-0.32-0.59-0.84-1.09-1.54-1.48c-0.71-0.39-1.66-0.59-2.86-0.59
				c-0.89,0-1.73,0.08-2.52,0.25c-0.79,0.17-1.57,0.4-2.35,0.7v-2.42c0.3-0.15,0.65-0.29,1.05-0.42c0.4-0.13,0.83-0.24,1.27-0.33
				c0.45-0.09,0.92-0.16,1.41-0.21c0.5-0.05,0.99-0.07,1.49-0.07c1.78,0,3.24,0.32,4.38,0.95c1.13,0.63,1.95,1.47,2.44,2.51
				c0.19,0.4,0.32,0.83,0.4,1.31c0.08,0.48,0.12,1,0.12,1.57v11.78h-2.42L637.44,463.27z M637.29,457.47
				c-0.53-0.15-1.16-0.29-1.89-0.43c-0.73-0.14-1.53-0.21-2.4-0.22c-1.22,0-2.18,0.26-2.87,0.78c-0.69,0.52-1.04,1.32-1.04,2.4
				c0,0.55,0.09,1.02,0.26,1.43c0.17,0.41,0.41,0.75,0.71,1.01c0.3,0.27,0.66,0.46,1.07,0.59c0.41,0.13,0.85,0.2,1.32,0.2
				c0.62,0,1.19-0.09,1.72-0.27c0.53-0.18,1-0.39,1.42-0.64c0.41-0.25,0.76-0.49,1.05-0.74c0.29-0.25,0.5-0.44,0.64-0.58V457.47z"/>
			<path d="M654.96,449.91h-0.22c-0.68,0-1.35,0.06-2.01,0.19c-0.66,0.12-1.27,0.31-1.85,0.57c-0.58,0.25-1.1,0.57-1.56,0.94
				c-0.46,0.37-0.85,0.81-1.16,1.32l0,12.3h-2.88v-17.65h2.23l0.56,2.81h0.06c0.28-0.46,0.63-0.88,1.05-1.28
				c0.41-0.4,0.88-0.74,1.4-1.04s1.09-0.53,1.71-0.7c0.62-0.17,1.27-0.25,1.95-0.25c0.12,0,0.25,0,0.38,0.01
				c0.13,0.01,0.24,0.02,0.34,0.03V449.91z"/>
			<path d="M668.63,465.26c-0.25,0.1-0.63,0.19-1.13,0.28c-0.51,0.09-1.11,0.14-1.82,0.15c-0.93,0-1.73-0.11-2.42-0.34
				c-0.68-0.23-1.25-0.56-1.7-0.98c-0.45-0.43-0.79-0.94-1.01-1.55c-0.22-0.61-0.33-1.28-0.33-2.03v-10.74h-3.4v-2.47h3.4v-4.83
				h2.88v4.83h5.28v2.47h-5.28v10.29c0,0.41,0.06,0.79,0.18,1.13c0.12,0.35,0.3,0.65,0.56,0.9c0.25,0.25,0.58,0.45,0.98,0.59
				c0.4,0.14,0.87,0.21,1.43,0.21c0.38,0,0.79-0.03,1.22-0.09c0.43-0.06,0.82-0.14,1.18-0.24V465.26z"/>
			<path d="M680.29,463.17c0.95,0,1.82-0.08,2.61-0.23c0.79-0.15,1.57-0.37,2.35-0.66v2.4c-0.63,0.31-1.41,0.55-2.34,0.73
				c-0.93,0.18-1.93,0.27-2.99,0.27c-1.26,0-2.45-0.16-3.56-0.48c-1.11-0.32-2.07-0.84-2.88-1.56c-0.81-0.72-1.45-1.66-1.9-2.82
				c-0.46-1.16-0.69-2.55-0.69-4.19c0-1.61,0.22-3.01,0.67-4.19c0.44-1.18,1.04-2.17,1.78-2.96c0.74-0.79,1.59-1.39,2.56-1.78
				c0.96-0.4,1.97-0.59,3.02-0.59c0.99,0,1.91,0.16,2.77,0.49c0.86,0.33,1.6,0.85,2.23,1.55c0.63,0.71,1.13,1.62,1.49,2.73
				c0.36,1.11,0.55,2.45,0.55,4.01c0,0.15,0,0.28,0,0.38c0,0.11-0.01,0.34-0.02,0.72h-12.19c0,1.13,0.17,2.08,0.51,2.87
				c0.34,0.79,0.8,1.42,1.39,1.91c0.59,0.49,1.28,0.85,2.07,1.07C678.52,463.06,679.37,463.17,680.29,463.17z M678.77,449.57
				c-0.67,0-1.28,0.13-1.85,0.39c-0.57,0.26-1.07,0.61-1.5,1.06c-0.43,0.45-0.77,0.97-1.03,1.57c-0.26,0.6-0.43,1.24-0.49,1.92h9.03
				c0-0.69-0.09-1.34-0.27-1.94c-0.18-0.6-0.45-1.12-0.8-1.57c-0.35-0.45-0.78-0.8-1.3-1.05
				C680.04,449.7,679.45,449.57,678.77,449.57z"/>
			<path d="M700.01,449.91h-0.22c-0.68,0-1.35,0.06-2.01,0.19c-0.66,0.12-1.27,0.31-1.85,0.57c-0.58,0.25-1.1,0.57-1.56,0.94
				c-0.46,0.37-0.85,0.81-1.16,1.32l0,12.3h-2.88v-17.65h2.23l0.56,2.81h0.06c0.28-0.46,0.63-0.88,1.05-1.28
				c0.41-0.4,0.88-0.74,1.4-1.04s1.09-0.53,1.71-0.7c0.62-0.17,1.27-0.25,1.95-0.25c0.12,0,0.25,0,0.38,0.01
				c0.13,0.01,0.24,0.02,0.34,0.03V449.91z"/>
			<path d="M708.46,447.57h2.88l5.48,13.84h0.11l5.63-13.84h2.88l-10.93,26.29h-2.86l3.77-8.99L708.46,447.57z"/>
			<path d="M743.77,456.41c0,1.39-0.2,2.65-0.59,3.79c-0.4,1.14-0.96,2.12-1.68,2.93c-0.72,0.81-1.6,1.44-2.63,1.89
				c-1.03,0.45-2.18,0.67-3.46,0.67c-1.31,0-2.49-0.22-3.52-0.67c-1.03-0.45-1.91-1.07-2.64-1.89c-0.72-0.81-1.28-1.79-1.66-2.93
				c-0.38-1.14-0.58-2.4-0.58-3.79c0-1.4,0.2-2.67,0.59-3.81c0.4-1.14,0.96-2.12,1.68-2.94s1.6-1.45,2.64-1.9
				c1.03-0.45,2.19-0.67,3.47-0.67c1.3,0,2.47,0.22,3.51,0.67c1.04,0.45,1.92,1.08,2.64,1.9c0.72,0.82,1.27,1.8,1.65,2.94
				C743.58,453.74,743.77,455.01,743.77,456.41z M740.76,456.41c0-1.09-0.13-2.06-0.4-2.91c-0.27-0.85-0.64-1.57-1.11-2.16
				c-0.48-0.59-1.04-1.03-1.7-1.34c-0.66-0.3-1.38-0.46-2.16-0.46c-0.78,0-1.5,0.15-2.16,0.46c-0.66,0.3-1.22,0.75-1.7,1.34
				c-0.48,0.59-0.85,1.31-1.11,2.16c-0.27,0.85-0.4,1.82-0.4,2.91c0,1.08,0.13,2.04,0.4,2.89c0.27,0.85,0.64,1.56,1.12,2.15
				c0.48,0.58,1.05,1.03,1.71,1.33c0.66,0.3,1.38,0.46,2.16,0.46s1.5-0.15,2.15-0.46c0.65-0.3,1.21-0.75,1.69-1.33
				c0.48-0.58,0.85-1.3,1.11-2.15C740.63,458.45,740.76,457.49,740.76,456.41z"/>
			<path d="M755.02,465.68c-0.92,0-1.74-0.1-2.47-0.3c-0.73-0.2-1.37-0.48-1.92-0.84c-0.55-0.36-1.02-0.79-1.4-1.29
				c-0.38-0.5-0.69-1.05-0.91-1.64c-0.17-0.45-0.3-0.93-0.37-1.47c-0.07-0.53-0.11-1.11-0.11-1.75v-10.83h2.88v10.81
				c0,0.98,0.13,1.8,0.39,2.45c0.3,0.74,0.78,1.33,1.44,1.76c0.66,0.43,1.51,0.64,2.54,0.64c1.09,0,1.97-0.23,2.63-0.71
				c0.66-0.47,1.14-1.1,1.42-1.9c0.21-0.61,0.32-1.36,0.32-2.25v-10.81h2.88v10.85c0,0.59-0.03,1.15-0.1,1.66
				c-0.07,0.51-0.18,0.99-0.33,1.42c-0.22,0.61-0.53,1.17-0.92,1.68c-0.39,0.51-0.87,0.96-1.44,1.33c-0.57,0.37-1.23,0.66-1.98,0.86
				C756.8,465.58,755.96,465.68,755.02,465.68z"/>
			<path d="M767.35,465.22v-3.62h3.53v3.62H767.35z"/>
		</g>
		<g>
			<rect x="348.32" y="409.82" width="422.56" height="5.95"/>
		</g>
	</g>
</g>
<g>
	<path class="st0" d="M678.2,328.2c0-1.76-1.38-3.09-3.2-3.09h-4.01v9.68h1.92v-3.53h1.05l2.31,3.53h2.38l-2.47-3.69
		C677.04,330.79,678.2,329.89,678.2,328.2z M676.24,328.2c0,0.7-0.67,1.24-1.24,1.24h-2.09v-2.56H675
		C675.59,326.88,676.24,327.44,676.24,328.2z"/>
	<path class="st0" d="M674.28,320.42c-5.24,0-9.5,4.26-9.5,9.5s4.26,9.5,9.5,9.5s9.5-4.26,9.5-9.5
		C683.78,324.59,679.61,320.42,674.28,320.42z M681.78,329.92c0,4.16-3.36,7.54-7.5,7.54c-4.16,0-7.54-3.38-7.54-7.54
		c0-4.21,3.31-7.5,7.54-7.5C678.42,322.42,681.78,325.79,681.78,329.92z"/>
</g>
</svg>
